# Blender 4.1.1
# www.blender.org
mtllib ole.mtl
o 3d-model
v -23.622063 0.000010 17.725033
v -22.440960 -0.000010 -17.708038
v -22.440960 0.000010 17.725033
v -23.571127 -0.000010 -17.708038
v -23.622063 -0.000009 -16.526936
v -23.622063 0.000010 16.543930
v -23.622063 27.559067 16.543915
v -23.622063 27.559067 17.725018
v -23.622063 1.181112 16.543930
v -23.571127 27.559048 -17.708054
v -23.622063 1.181094 -16.526936
v -23.622063 27.559048 -16.526951
v -23.571127 27.559067 16.543915
v -22.440960 1.181112 16.543930
v -23.571127 1.181112 16.543930
v -22.440960 27.559067 16.543915
v -23.571127 1.181094 -16.526936
v -22.440960 1.181094 -16.526936
v -22.440960 27.559048 -16.526951
v -23.571127 27.559048 -16.526951
v -23.571127 0.000010 16.543930
v -22.440960 1.181093 -17.708038
v -22.440960 28.740150 -16.526951
v -22.440960 28.740150 -17.708054
v -22.440960 1.181113 17.725033
v -22.440960 28.740170 17.725016
v -22.440960 28.740170 16.543915
v -23.622063 28.740170 16.543915
v -23.620365 27.559067 16.543991
v -23.571127 28.740170 16.543915
v -23.620365 28.740170 16.543989
v -23.622063 28.740150 -16.526951
v -23.571127 28.740150 -17.708054
v -23.622063 28.740170 17.725016
v -23.671299 27.559048 -16.526875
v -23.671299 28.740150 -16.526875
v -23.620365 1.181112 16.544006
v -23.671299 1.181094 -16.526859
v -34.202732 28.740150 -16.543858
v -23.572823 27.559048 -16.528580
v -34.202732 27.559048 -16.543858
v -23.572823 28.740150 -16.528580
v -35.382137 27.559048 -17.725033
v -35.383835 27.559048 -16.545555
v -35.382137 28.740150 -17.725033
v -35.383835 28.740150 -16.545555
v -34.250275 27.559067 16.528564
v -34.250275 28.740170 16.528563
v -35.433075 28.740170 17.708038
v -35.431374 28.740170 16.526865
v -35.433075 27.559067 17.708038
v -35.431374 27.559067 16.526865
v 23.622061 0.000003 17.725025
v 22.440958 0.000003 -17.708046
v 22.440958 0.000003 17.725025
v 23.571125 0.000003 -17.708046
v 23.622061 0.000003 -16.526943
v 23.622061 0.000003 16.543922
v 23.622061 27.559059 16.543922
v 23.622061 27.559059 17.725025
v 23.622061 1.181105 16.543922
v 23.571125 27.559059 -17.708046
v 23.622061 1.181105 -16.526943
v 23.622061 27.559059 -16.526943
v 23.571125 27.559059 16.543922
v 22.440958 1.181105 16.543922
v 23.571125 1.181105 16.543922
v 22.440958 27.559059 16.543922
v 23.571125 1.181105 -16.526943
v 22.440958 1.181105 -16.526943
v 22.440958 27.559059 -16.526943
v 23.571125 27.559059 -16.526943
v 23.571125 0.000003 16.543922
v 22.440958 1.181105 -17.708046
v 22.440958 28.740162 -16.526943
v 22.440958 28.740162 -17.708046
v 22.440958 1.181105 17.725025
v 22.440958 28.740162 17.725025
v 22.440958 28.740162 16.543922
v 23.622061 28.740162 16.543922
v 23.620363 27.559059 16.543999
v 23.571125 28.740162 16.543922
v 23.620363 28.740162 16.543999
v 23.622061 28.740162 -16.526943
v 23.571125 28.740162 -17.708046
v 23.622061 28.740162 17.725025
v 23.671299 27.559059 -16.526867
v 23.671299 28.740162 -16.526867
v 23.620363 1.181105 16.543999
v 23.671299 1.181105 -16.526867
v 34.202732 28.740162 -16.543850
v 23.572821 27.559059 -16.528572
v 34.202732 27.559059 -16.543850
v 23.572821 28.740162 -16.528572
v 35.382137 27.559059 -17.725025
v 35.383831 27.559059 -16.545547
v 35.382137 28.740162 -17.725025
v 35.383831 28.740162 -16.545547
v 34.250275 27.559059 16.528572
v 34.250275 28.740162 16.528572
v 35.433071 28.740162 17.708046
v 35.431374 28.740162 16.526875
v 35.433071 27.559059 17.708046
v 35.431374 27.559059 16.526875
v 35.433071 30.708666 -17.725023
v -35.433071 30.708666 17.708048
v -35.433071 30.708666 -17.725023
v 35.433071 30.708666 17.708048
v -35.433071 28.740162 -17.725023
v -35.433071 28.740162 17.708048
v 35.433071 28.740162 -17.725023
v 35.433071 28.740162 17.708048
v -22.834648 28.740162 17.708048
vn -0.5773 -0.5773 0.5774
vn 0.5774 -0.5774 -0.5774
vn 0.5774 -0.5774 0.5774
vn -0.5637 -0.5796 -0.5885
vn -0.8354 -0.5495 -0.0116
vn -0.8321 -0.0000 -0.5547
vn -0.4126 0.8125 0.4119
vn -0.5350 0.2673 0.8015
vn 1.0000 -0.0000 -0.0000
vn -0.8104 0.4051 -0.4232
vn -0.9470 0.2369 0.2169
vn -0.3192 -0.0000 0.9477
vn -0.0009 -0.0000 -1.0000
vn 0.9045 0.3015 -0.3015
vn -0.3339 0.6668 -0.6663
vn 0.9973 -0.0000 -0.0734
vn -0.0000 0.7071 0.7071
vn 0.9045 0.3015 0.3015
vn 0.7071 -0.0000 0.7071
vn -0.0000 -0.0000 1.0000
vn -1.0000 -0.0000 0.0015
vn 0.7071 -0.0000 -0.7071
vn 0.0015 0.0278 -0.9996
vn -0.3019 0.3088 -0.9019
vn -0.0005 0.0003 -1.0000
vn -0.7179 0.6962 -0.0010
vn 0.0008 -0.0000 1.0000
vn -0.7076 -0.7066 -0.0010
vn -0.4089 -0.4083 0.8161
vn 0.0015 -0.0000 1.0000
vn -0.0011 0.7071 -0.7071
vn 0.0011 0.7071 0.7071
vn -0.2665 -0.8018 -0.5349
vn -0.5765 0.5773 -0.5782
vn -0.2665 0.8018 -0.5349
vn -0.5765 -0.5774 -0.5782
vn -0.5782 0.5774 0.5765
vn -0.6662 0.6667 -0.3343
vn -0.5782 -0.5774 0.5765
vn -0.6662 -0.6667 -0.3343
vn -0.3020 0.9045 0.3011
vn -0.3020 -0.9045 0.3011
vn -0.7071 -0.7071 -0.0010
vn -0.7071 0.7071 -0.0010
vn -0.5773 0.5773 -0.5774
vn 0.5774 0.5773 0.5773
vn 0.5774 0.5774 -0.5774
vn -0.5637 0.5796 0.5885
vn -0.8354 0.5495 0.0116
vn -1.0000 -0.0000 -0.0000
vn -0.4125 -0.8125 -0.4119
vn -0.5350 -0.2673 -0.8015
vn -0.4472 0.8944 -0.0000
vn -0.8104 -0.4051 0.4232
vn -0.9470 -0.2369 -0.2169
vn -0.3192 -0.0000 -0.9477
vn -0.0009 -0.0000 1.0000
vn 0.9045 -0.3015 0.3015
vn -0.3339 -0.6668 0.6663
vn -0.0000 -0.7071 -0.7071
vn 0.9045 -0.3015 -0.3015
vn -0.0000 -0.0000 -1.0000
vn -1.0000 -0.0000 -0.0015
vn -0.0009 -0.0285 0.9996
vn -0.3019 -0.3088 0.9019
vn -0.0005 -0.0003 1.0000
vn -0.7190 -0.6950 0.0010
vn 0.0008 -0.0000 -1.0000
vn -0.7076 0.7066 0.0010
vn -0.4089 0.4083 -0.8161
vn 0.0015 -0.0000 -1.0000
vn -0.0011 -0.7071 0.7071
vn 0.0011 -0.7071 -0.7071
vn -0.2665 0.8018 0.5349
vn -0.5765 -0.5773 0.5782
vn -0.2665 -0.8018 0.5349
vn -0.5765 0.5774 0.5782
vn -0.5782 -0.5774 -0.5765
vn -0.6662 -0.6667 0.3343
vn -0.5782 0.5774 -0.5765
vn -0.6662 0.6667 0.3343
vn -0.3020 -0.9045 -0.3011
vn -0.3020 0.9045 -0.3011
vn -0.7071 0.7071 0.0010
vn -0.7071 -0.7071 0.0010
vn -0.5774 -0.5773 0.5774
vn 0.5774 -0.5773 -0.5773
vn -0.5774 -0.5774 -0.5774
vn 0.5774 0.5773 0.5774
vn -0.5774 0.5773 0.5774
vn -0.5774 0.5773 -0.5774
vn -0.0000 0.7071 -0.7071
s 1
f 1//1 2//2 3//3
f 2//2 1//1 4//4
f 4//4 1//1 5//5
f 5//5 1//1 6//6
f 7//7 1//1 8//8
f 1//1 7//7 6//6
f 6//6 7//7 9//9
f 10//10 11//11 12//12
f 11//11 4//4 5//5
f 4//4 11//11 10//10
f 13//13 14//14 15//15
f 14//14 13//13 16//16
f 17//17 14//14 18//18
f 14//14 17//17 15//15
f 19//19 17//17 18//18
f 17//17 19//19 20//20
f 11//11 21//21 15//15
f 21//21 11//11 5//5
f 11//11 6//6 9//9
f 6//6 11//11 5//5
f 22//22 19//19 18//18
f 19//19 22//22 23//19
f 23//19 22//22 24//22
f 2//2 25//19 3//3
f 25//19 2//2 14//14
f 14//14 2//2 18//18
f 18//18 2//2 22//22
f 14//14 26//19 25//19
f 26//19 14//14 27//22
f 27//22 14//14 16//16
f 28//23 29//24 7//7
f 29//24 28//23 13//13
f 13//13 28//23 30//25
f 30//25 28//23 31//26
f 23//19 20//20 19//19
f 20//20 23//19 12//12
f 12//12 23//19 32//27
f 10//10 2//2 4//4
f 2//2 10//10 22//22
f 22//22 10//10 24//22
f 24//22 10//10 33//28
f 25//19 1//1 3//3
f 1//1 25//19 8//8
f 8//8 25//19 26//19
f 8//8 26//19 34//29
f 30//25 16//16 13//13
f 16//16 30//25 27//22
f 32//27 35//30 12//12
f 35//30 32//27 36//30
f 31//26 13//13 29//24
f 13//13 31//26 30//25
f 29//24 15//15 37//31
f 15//15 29//24 13//13
f 11//11 37//31 15//15
f 37//31 11//11 38//32
f 12//12 38//32 11//11
f 38//32 12//12 35//30
f 39//33 40//34 41//35
f 40//34 39//33 42//36
f 33//28 40//34 42//36
f 40//34 33//28 10//10
f 43//37 40//34 10//10
f 40//34 43//37 41//35
f 41//35 43//37 44//38
f 42//36 45//39 33//28
f 45//39 42//36 39//33
f 45//39 39//33 46//40
f 31//26 7//7 29//24
f 7//7 31//26 47//41
f 47//41 31//26 48//42
f 48//42 31//26 28//23
f 31//26 8//8 34//29
f 8//8 31//26 29//24
f 34//29 28//23 31//26
f 28//23 34//29 49//39
f 28//23 49//39 48//42
f 48//42 49//39 50//43
f 7//7 8//8 29//24
f 8//8 7//7 47//41
f 8//8 47//41 51//37
f 51//37 47//41 52//44
f 33//28 43//37 10//10
f 43//37 33//28 45//39
f 45//39 44//38 46//40
f 44//38 45//39 43//37
f 39//33 47//41 48//42
f 47//41 39//33 41//35
f 46//40 41//35 44//38
f 41//35 46//40 39//33
f 44//38 47//41 41//35
f 47//41 44//38 52//44
f 48//42 46//40 39//33
f 46//40 48//42 50//43
f 50//43 51//37 49//39
f 51//37 50//43 52//44
f 52//44 50//43 46//40
f 52//44 46//40 44//38
f 34//29 51//37 8//8
f 51//37 34//29 49//39
f 53//45 54//46 55//47
f 54//46 53//45 56//48
f 56//48 53//45 57//49
f 57//49 53//45 58//50
f 59//51 53//45 60//52
f 53//45 59//51 58//50
f 58//50 59//51 61//53
f 62//54 63//55 64//56
f 63//55 56//48 57//49
f 56//48 63//55 62//54
f 65//57 66//58 67//59
f 66//58 65//57 68//17
f 69//60 66//58 70//61
f 66//58 69//60 67//59
f 71//22 69//60 70//61
f 69//60 71//22 72//62
f 63//55 73//63 67//59
f 73//63 63//55 57//49
f 63//55 58//50 61//53
f 58//50 63//55 57//49
f 74//19 71//22 70//61
f 71//22 74//19 75//22
f 75//22 74//19 76//19
f 54//46 77//22 55//47
f 77//22 54//46 66//58
f 66//58 54//46 70//61
f 70//61 54//46 74//19
f 66//58 78//22 77//22
f 78//22 66//58 79//19
f 79//19 66//58 68//17
f 80//64 81//65 59//51
f 81//65 80//64 65//57
f 65//57 80//64 82//66
f 82//66 80//64 83//67
f 75//22 72//62 71//22
f 72//62 75//22 64//56
f 64//56 75//22 84//68
f 62//54 54//46 56//48
f 54//46 62//54 74//19
f 74//19 62//54 76//19
f 76//19 62//54 85//69
f 77//22 53//45 55//47
f 53//45 77//22 60//52
f 60//52 77//22 78//22
f 60//52 78//22 86//70
f 82//66 68//17 65//57
f 68//17 82//66 79//19
f 84//68 87//71 64//56
f 87//71 84//68 88//71
f 83//67 65//57 81//65
f 65//57 83//67 82//66
f 81//65 67//59 89//72
f 67//59 81//65 65//57
f 63//55 89//72 67//59
f 89//72 63//55 90//73
f 64//56 90//73 63//55
f 90//73 64//56 87//71
f 91//74 92//75 93//76
f 92//75 91//74 94//77
f 85//69 92//75 94//77
f 92//75 85//69 62//54
f 95//78 92//75 62//54
f 92//75 95//78 93//76
f 93//76 95//78 96//79
f 94//77 97//80 85//69
f 97//80 94//77 91//74
f 97//80 91//74 98//81
f 83//67 59//51 81//65
f 59//51 83//67 99//82
f 99//82 83//67 100//83
f 100//83 83//67 80//64
f 83//67 60//52 86//70
f 60//52 83//67 81//65
f 86//70 80//64 83//67
f 80//64 86//70 101//80
f 80//64 101//80 100//83
f 100//83 101//80 102//84
f 59//51 60//52 81//65
f 60//52 59//51 99//82
f 60//52 99//82 103//78
f 103//78 99//82 104//85
f 85//69 95//78 62//54
f 95//78 85//69 97//80
f 97//80 96//79 98//81
f 96//79 97//80 95//78
f 91//74 99//82 100//83
f 99//82 91//74 93//76
f 98//81 93//76 96//79
f 93//76 98//81 91//74
f 96//79 99//82 93//76
f 99//82 96//79 104//85
f 100//83 98//81 91//74
f 98//81 100//83 102//84
f 102//84 103//78 101//80
f 103//78 102//84 104//85
f 104//85 102//84 98//81
f 104//85 98//81 96//79
f 86//70 103//78 60//52
f 103//78 86//70 101//80
f 105//86 106//87 107//3
f 106//87 105//86 108//88
f 109//89 106//87 110//47
f 106//87 109//89 107//3
f 105//86 109//89 111//90
f 109//89 105//86 107//3
f 105//86 112//91 108//88
f 112//91 105//86 111//90
f 106//87 113//92 110//47
f 113//92 106//87 112//91
f 112//91 106//87 108//88
f 113//92 109//89 110//47
f 109//89 113//92 111//90
f 111//90 113//92 112//91
